<?xml version="1.0" encoding="UTF-8"?>
<svg version="1.1" xmlns="http://www.w3.org/2000/svg" width="559" height="447">
<path d="M0 0 C1.09957031 0.02835938 2.19914062 0.05671875 3.33203125 0.0859375 C24.80356532 1.11657114 44.89140423 8.68499656 63 20 C64.41732422 20.87591797 64.41732422 20.87591797 65.86328125 21.76953125 C70.39197319 24.66423169 70.39197319 24.66423169 72 26 C72 26.66 72 27.32 72 28 C72.59167969 28.27585937 73.18335938 28.55171875 73.79296875 28.8359375 C80.57522254 32.41312623 88.56007797 39.68023391 91 47 C91.66 47 92.32 47 93 47 C94.83451687 49.4855726 96.52789996 51.96271051 98.1875 54.5625 C98.68000244 55.33029785 99.17250488 56.0980957 99.67993164 56.88916016 C104.14669629 63.99241967 107.76711888 71.26765693 111 79 C111.39832031 79.92941406 111.79664063 80.85882813 112.20703125 81.81640625 C115.30773567 89.60881325 116.74082075 97.74124432 118 106 C118.16409961 107.03476597 118.32819921 108.06953194 118.49727154 109.13565445 C119.91548403 118.76038342 120.29212296 128.14049521 120.2746582 137.85839844 C120.27901835 139.48806489 120.28420578 141.11772929 120.29014587 142.74739075 C120.3034 147.12522422 120.30413042 151.50297068 120.30158257 155.88082027 C120.3005046 159.55137284 120.30541662 163.22190837 120.310188 166.89245725 C120.32123385 175.5541319 120.32174698 184.21576315 120.31567383 192.87744141 C120.30962339 201.78612489 120.32198347 210.69465086 120.3432439 219.60330749 C120.36089448 227.28440785 120.36685623 234.9654582 120.36360615 242.64657807 C120.36180035 247.22033885 120.36435991 251.79398696 120.37832069 256.36772919 C120.39095276 260.66562745 120.38890447 264.96328039 120.37590981 269.26117516 C120.37355701 270.83042422 120.37623174 272.39969088 120.38453293 273.96891975 C120.49074044 295.61968641 120.49074044 295.61968641 114 303 C108.00688486 306.29033773 102.94238333 306.90063067 96.28125 305.37890625 C89.1575337 303.26991129 83.30459837 299.94953667 77.08203125 295.94140625 C73.71510657 293.82054241 70.27958213 292.08540645 66.69921875 290.36328125 C61.00257553 287.48610544 55.51746932 284.20394832 50 281 C50 280.34 50 279.68 50 279 C49.2678125 278.89429688 48.535625 278.78859375 47.78125 278.6796875 C44.78208133 277.9467446 43.00708483 276.89938046 40.5 275.125 C39.72269531 274.59003906 38.94539063 274.05507813 38.14453125 273.50390625 C37.08298828 272.75947266 37.08298828 272.75947266 36 272 C32.73696406 269.61919632 32.73696406 269.61919632 28.9375 269 C26.18360582 270.42136474 24.88827892 272.55634492 23 275 C21.5459375 276.2065625 21.5459375 276.2065625 20.0625 277.4375 C17.46300125 279.61259079 15.50752398 281.76901642 13.40625 284.40234375 C11.18129027 286.93014523 8.60623031 289.02605262 6.05078125 291.2109375 C1.8589387 294.8678211 -1.98252638 298.75359482 -5.5 303.0625 C-7.9442012 305.93443641 -10.48884186 308.17355724 -13.37890625 310.56640625 C-15.17440253 312.07184232 -15.17440253 312.07184232 -17 314.5 C-19.24450628 317.30563285 -21.73122784 319.41142473 -24.51171875 321.66796875 C-26.12882545 322.95079945 -26.12882545 322.95079945 -27 325 C-27.66 325 -28.32 325 -29 325 C-29.33 325.99 -29.66 326.98 -30 328 C-31.65385233 329.34919532 -33.321702 330.68133728 -35 332 C-35.556875 332.7425 -36.11375 333.485 -36.6875 334.25 C-37.120625 334.8275 -37.55375 335.405 -38 336 C-38.66 336 -39.32 336 -40 336 C-40 336.66 -40 337.32 -40 338 C-41.80172089 339.73312746 -43.72950581 341.27298656 -45.6640625 342.85546875 C-47.59644357 344.62951091 -49.14531498 346.34532473 -50.796875 348.36328125 C-54.00786117 352.17563072 -57.61116351 355.07082672 -61.625 358 C-62.3264917 358.51763916 -63.0279834 359.03527832 -63.75073242 359.56860352 C-91.28951462 379.61191943 -124.80448806 388.25516308 -158.65234375 383.2734375 C-163.50108996 382.42382613 -168.25387878 381.30090755 -173 380 C-173.67417969 379.81808105 -174.34835938 379.63616211 -175.04296875 379.44873047 C-187.95901116 375.84267971 -201.02518472 369.77382749 -212 362 C-212 361.34 -212 360.68 -212 360 C-212.59151855 359.89220215 -213.18303711 359.7844043 -213.79248047 359.67333984 C-216.28428379 358.91328747 -217.43329348 358.00063993 -219.3203125 356.2265625 C-219.93334229 355.65446045 -220.54637207 355.0823584 -221.17797852 354.49291992 C-221.82049561 353.87650635 -222.4630127 353.26009277 -223.125 352.625 C-224.12261353 351.67814331 -224.12261353 351.67814331 -225.14038086 350.7121582 C-237.65755017 338.72151795 -246.52363119 326.59409279 -254 311 C-254.3815625 310.26394531 -254.763125 309.52789062 -255.15625 308.76953125 C-268.56992721 281.6717398 -267.80457351 247.20618853 -258.73828125 218.95703125 C-254.1006065 205.23410249 -247.80854014 193.54222501 -239 182 C-238.41605469 181.18789062 -237.83210938 180.37578125 -237.23046875 179.5390625 C-236.43576172 178.43691406 -236.43576172 178.43691406 -235.625 177.3125 C-235.16351563 176.66925781 -234.70203125 176.02601563 -234.2265625 175.36328125 C-233.61941406 174.68845703 -233.61941406 174.68845703 -233 174 C-232.34 174 -231.68 174 -231 174 C-230.73810631 173.41334438 -230.47621262 172.82668877 -230.20638275 172.22225571 C-228.93243996 169.87554888 -227.58094162 168.3293693 -225.69787598 166.44390869 C-225.01647049 165.75686356 -224.335065 165.06981842 -223.63301086 164.36195374 C-222.88593369 163.61892502 -222.13885651 162.8758963 -221.36914062 162.11035156 C-220.58202194 161.31972824 -219.79490326 160.52910492 -218.9839325 159.71452332 C-216.37971635 157.10150117 -213.76824846 154.49586621 -211.15625 151.890625 C-209.34756653 150.08059483 -207.53918008 148.27026781 -205.7310791 146.45965576 C-201.94131499 142.66694214 -198.14804994 138.87777817 -194.35205078 135.09130859 C-189.95959092 130.70974829 -185.5744037 126.32100817 -181.19289446 121.92849946 C-176.97933701 117.70478719 -172.76018891 113.48669451 -168.53862 109.27098846 C-166.74131741 107.47502411 -164.94551049 105.67756174 -163.15119934 103.8786087 C-160.649213 101.37157068 -158.14095285 98.87098762 -155.63085938 96.37207031 C-154.8837822 95.62094467 -154.13670502 94.86981903 -153.36698914 94.09593201 C-152.68558365 93.42016617 -152.00417816 92.74440033 -151.30212402 92.04815674 C-150.70924339 91.45603016 -150.11636276 90.86390358 -149.50551605 90.25383377 C-148 89 -148 89 -146 89 C-145.5978125 88.1028125 -145.5978125 88.1028125 -145.1875 87.1875 C-144.00082594 85.00152146 -142.90400887 83.58667406 -141 82 C-140.34 82 -139.68 82 -139 82 C-138.505 80.515 -138.505 80.515 -138 79 C-137.34 79 -136.68 79 -136 79 C-135.62875 78.13375 -135.62875 78.13375 -135.25 77.25 C-133.81700012 74.67060021 -132.21575324 72.93878408 -130 71 C-129.34 71 -128.68 71 -128 71 C-127.67 70.01 -127.34 69.02 -127 68 C-125.5625 66.3125 -125.5625 66.3125 -124 65 C-123.34 65 -122.68 65 -122 65 C-121.63068359 64.14390137 -121.63068359 64.14390137 -121.25390625 63.27050781 C-119.79101003 60.6215719 -118.07354681 58.81451454 -115.9375 56.671875 C-115.14085937 55.87265625 -114.34421875 55.0734375 -113.5234375 54.25 C-112.69070313 53.425 -111.85796875 52.6 -111 51.75 C-109.75089844 50.48929688 -109.75089844 50.48929688 -108.4765625 49.203125 C-107.67992187 48.4090625 -106.88328125 47.615 -106.0625 46.796875 C-105.33160156 46.06823242 -104.60070312 45.33958984 -103.84765625 44.58886719 C-102 43 -102 43 -100 43 C-99.79375 42.45859375 -99.5875 41.9171875 -99.375 41.359375 C-97.46315331 38.07881988 -94.79501496 35.76155826 -92 33.25 C-91.4534375 32.74339844 -90.906875 32.23679688 -90.34375 31.71484375 C-86.25842318 28 -86.25842318 28 -84 28 C-84 27.34 -84 26.68 -84 26 C-68.74196339 13.29056419 -49.14668519 6.10783428 -30 2 C-29.31679688 1.814375 -28.63359375 1.62875 -27.9296875 1.4375 C-18.95965213 -0.59619223 -9.1443925 -0.23807886 0 0 Z M-35 116 C-40.19767645 123.16096344 -41.17332767 130.31954804 -40 139 C-38.36455719 144.90673229 -35.68666906 148.99918495 -31 153 C-29.8553125 154.051875 -29.8553125 154.051875 -28.6875 155.125 C-23.15034703 158.98812998 -17.50195972 160.68115934 -10.73046875 160.4921875 C-4.47254242 159.36414928 2.92108823 156.04678913 7 151 C7 150.34 7 149.68 7 149 C7.66 149 8.32 149 9 149 C9.64690922 147.3962669 10.29248764 145.79199694 10.9375 144.1875 C11.29714844 143.29417969 11.65679687 142.40085938 12.02734375 141.48046875 C15.11063809 133.61744905 14.22379534 128.31598111 11.1953125 120.5859375 C7.76694328 113.16900801 2.5042803 110.04740014 -4.75 106.75 C-16.81187754 103.9664898 -26.78123067 106.72978897 -35 116 Z M-92.76953125 173.70703125 C-99.07921179 180.75360879 -99.69515433 187.62717136 -99.44140625 196.81640625 C-99.04306368 202.4319127 -96.92719004 206.02955897 -93 210 C-92.43539062 210.58136719 -91.87078125 211.16273438 -91.2890625 211.76171875 C-84.5622612 218.04716884 -78.40151356 219.62551012 -69.30859375 219.42578125 C-64.3212547 218.78396312 -60.01578789 217.04616389 -56 214 C-55.67 213.01 -55.34 212.02 -55 211 C-54.01 210.67 -53.02 210.34 -52 210 C-50.523737 207.6737674 -49.23556032 205.44483212 -48 203 C-47.5875 202.236875 -47.175 201.47375 -46.75 200.6875 C-44.60737892 193.00977447 -45.95893584 185.24979432 -49 178 C-50.86159111 174.93392726 -50.86159111 174.93392726 -53 173 C-53.66 173 -54.32 173 -55 173 C-55 172.34 -55 171.68 -55 171 C-67.39078092 162.52045043 -81.79595333 163.12104107 -92.76953125 173.70703125 Z M-154.55859375 235.83203125 C-158.62987479 241.95550274 -159.9256396 248.7449869 -159 256 C-157.76822966 261.4626337 -156.03221803 265.96778197 -152 270 C-151.34 270 -150.68 270 -150 270 C-149.67 270.99 -149.34 271.98 -149 273 C-146.98491642 273.73323796 -146.98491642 273.73323796 -145 274 C-145 274.66 -145 275.32 -145 276 C-140.52268535 277.71994404 -136.78853369 278.27100234 -132 278.25 C-130.824375 278.25515625 -129.64875 278.2603125 -128.4375 278.265625 C-124.98062755 277.99850304 -122.22482527 277.23880483 -119 276 C-119 275.34 -119 274.68 -119 274 C-118.29875 273.814375 -117.5975 273.62875 -116.875 273.4375 C-111.44668635 270.72334318 -108.21875451 266.2643105 -106.125 260.625 C-103.67521563 251.9554038 -104.77372748 244.93907268 -109 237 C-112.63151117 231.31541564 -117.51920193 227.03759164 -124 225 C-136.79317984 223.3910418 -146.20073734 225.49621347 -154.55859375 235.83203125 Z " fill="#5515AE" transform="translate(418,31)"/>
<path d="M0 0 C1.07507813 0.01675781 2.15015625 0.03351562 3.2578125 0.05078125 C41.37700473 1.59854428 70.43561255 24.32706798 96.3503418 50.00024414 C97.67650958 51.30958113 99.00805028 52.61349498 100.34448242 53.91235352 C102.30032135 55.81384389 104.23956835 57.73089819 106.17578125 59.65234375 C106.77763748 60.23153061 107.37949371 60.81071747 107.99958801 61.40745544 C109.6418457 63.05834961 109.6418457 63.05834961 112 66 C111.08508672 72.78979289 104.710545 77.3551898 99.7265625 81.4609375 C97.3554442 83.57455879 95.41644073 85.96896864 93.3984375 88.4140625 C91.49603593 90.57153468 89.24322932 92.20541654 87 94 C85.45469107 95.74258241 83.97432257 97.53098543 82.48828125 99.32421875 C80.54611833 101.51106362 78.31040695 103.21768607 76 105 C75.67 105.66 75.34 106.32 75 107 C74.34 107 73.68 107 73 107 C73 107.66 73 108.32 73 109 C71.34997172 110.35386936 69.6825613 111.68678142 68 113 C67.67 113.66 67.34 114.32 67 115 C66.34 115 65.68 115 65 115 C65 115.66 65 116.32 65 117 C63.34997172 118.35386936 61.6825613 119.68678142 60 121 C59.67 121.66 59.34 122.32 59 123 C58.34 123 57.68 123 57 123 C57 123.66 57 124.32 57 125 C55.34997172 126.35386936 53.6825613 127.68678142 52 129 C51.67 129.66 51.34 130.32 51 131 C50.34 131 49.68 131 49 131 C49 131.66 49 132.32 49 133 C47.34997172 134.35386936 45.6825613 135.68678142 44 137 C43.67 137.66 43.34 138.32 43 139 C42.34 139 41.68 139 41 139 C40.67 139.99 40.34 140.98 40 142 C39.34 142 38.68 142 38 142 C38 142.66 38 143.32 38 144 C37.34 144 36.68 144 36 144 C35.67 144.99 35.34 145.98 35 147 C33.51171875 148.4296875 33.51171875 148.4296875 31.6875 149.875 C28.68944881 152.33241901 26.41339124 154.96091473 24 158 C23.34 158 22.68 158 22 158 C22 158.66 22 159.32 22 160 C21.34 160 20.68 160 20 160 C19.61134766 160.86044922 19.61134766 160.86044922 19.21484375 161.73828125 C17.89708308 164.19160417 16.36739435 166.0674058 14.5625 168.1875 C4.22393637 181.02157899 -3.33647868 194.54254428 -9 210 C-9.25507324 210.69480469 -9.51014648 211.38960937 -9.77294922 212.10546875 C-19.09740329 238.14594279 -19.27770471 266.0145932 -14 293 C-18.50704266 292.15376254 -20.75864152 289.5400536 -23.8125 286.3125 C-24.88343373 285.20770979 -25.95633503 284.10482327 -27.03125 283.00390625 C-27.54429688 282.47812988 -28.05734375 281.95235352 -28.5859375 281.41064453 C-30.24867032 279.75193075 -31.99317246 278.23440588 -33.8125 276.75 C-37.01154198 274.11640611 -39.5745141 271.09075124 -42.25 267.9375 C-43.90380025 266.10650686 -45.59609722 264.56392014 -47.5 263 C-49.984544 260.94874292 -52.10106082 258.83022868 -54.1875 256.375 C-57.34419495 252.66713608 -60.68772235 249.19514327 -64.125 245.75 C-64.62797607 245.24259277 -65.13095215 244.73518555 -65.64916992 244.21240234 C-68.62056294 241.25225535 -71.72836908 238.61620318 -75 236 C-76.03609396 234.88669711 -77.04066594 233.74258991 -78 232.5625 C-81.05083229 228.82696387 -84.46176294 225.51038047 -87.90087891 222.13354492 C-90.04137864 220.02984676 -92.17700508 217.92127738 -94.3125 215.8125 C-95.42334961 214.72678711 -95.42334961 214.72678711 -96.55664062 213.61914062 C-97.60561523 212.57983398 -97.60561523 212.57983398 -98.67578125 211.51953125 C-99.31427002 210.89151611 -99.95275879 210.26350098 -100.6105957 209.61645508 C-102 208 -102 208 -102 206 C-102.66 206 -103.32 206 -104 206 C-105.52829864 204.03032631 -106.93080498 202.06911684 -108.3125 200 C-108.69083984 199.44699219 -109.06917969 198.89398438 -109.45898438 198.32421875 C-110.65702038 196.56061244 -111.83156236 194.7833427 -113 193 C-113.41813965 192.36876221 -113.8362793 191.73752441 -114.26708984 191.0871582 C-117.35651863 186.30758841 -119.80667343 181.43512638 -122 176.1875 C-122.3410376 175.37216797 -122.6820752 174.55683594 -123.03344727 173.71679688 C-127.86827643 161.78684735 -131.79007492 148.95076275 -132 136 C-132.01369629 135.23397461 -132.02739258 134.46794922 -132.04150391 133.67871094 C-132.1377049 127.44998648 -132.11136016 121.228308 -132 115 C-131.98324219 113.96617187 -131.96648437 112.93234375 -131.94921875 111.8671875 C-130.49069906 85.28045723 -116.83040684 60.79101378 -100 41 C-99.32324219 40.13890625 -98.64648438 39.2778125 -97.94921875 38.390625 C-89.06529559 27.49491162 -75.38986901 19.26454051 -63 13 C-62.35160156 12.64550781 -61.70320313 12.29101562 -61.03515625 11.92578125 C-42.08459112 1.78943246 -21.15170238 -0.53259682 0 0 Z " fill="#7A2CE5" transform="translate(152,31)"/>
<path d="M0 0 C0 3.54275774 -0.8144815 4.65443136 -2.75 7.5625 C-3.26046875 8.34753906 -3.7709375 9.13257812 -4.296875 9.94140625 C-6.09015087 12.10896676 -7.51184242 12.80336489 -10 14 C-10.81171228 16.55519921 -10.81171228 16.55519921 -11 19 C-12.65 19.33 -14.3 19.66 -16 20 C-16.33 20.99 -16.66 21.98 -17 23 C-17.680625 23.598125 -18.36125 24.19625 -19.0625 24.8125 C-21.32285175 26.9210898 -21.32285175 26.9210898 -21.25 30.25 C-21.12625 31.61125 -21.12625 31.61125 -21 33 C-22.98 33.495 -22.98 33.495 -25 34 C-25.12375 34.556875 -25.2475 35.11375 -25.375 35.6875 C-26.38168962 39.41225158 -27.39177564 42.29367494 -29.9375 45.25 C-32.29342331 48.39123107 -33.15298054 51.20862419 -34.27734375 54.92578125 C-35.11970163 57.34357604 -36.42787525 58.99911396 -38 61 C-38.71433121 63.64934822 -38.71433121 63.64934822 -39 66 C-39.66 66 -40.32 66 -41 66 C-39.78935874 59.61928639 -37.97800926 53.78520813 -35.4375 47.8125 C-35.08743896 46.98878906 -34.73737793 46.16507813 -34.37670898 45.31640625 C-29.04607059 33.16174857 -21.58280804 23.09259454 -13 13 C-12.34 12.15050781 -11.68 11.30101563 -11 10.42578125 C-9.0790462 8.09587439 -7.11155544 6.19966803 -4.8125 4.25 C-4.11769531 3.65703125 -3.42289063 3.0640625 -2.70703125 2.453125 C-2.14371094 1.97359375 -1.58039062 1.4940625 -1 1 C-0.67 0.67 -0.34 0.34 0 0 Z " fill="#8349D9" transform="translate(65,59)"/>
<path d="M0 0 C1.07507813 0.01675781 2.15015625 0.03351562 3.2578125 0.05078125 C14.998843 0.52750523 27.18257191 3.32042849 38 8 C37.67 8.66 37.34 9.32 37 10 C35.68 10 34.36 10 33 10 C33 9.34 33 8.68 33 8 C28.05 7.67 23.1 7.34 18 7 C17.67 7.66 17.34 8.32 17 9 C16.46375 8.195625 15.9275 7.39125 15.375 6.5625 C11.97783476 2.8971375 8.81441165 3.07732697 3.96386719 2.87060547 C2.91875977 2.86947754 1.87365234 2.86834961 0.796875 2.8671875 C-0.92015625 2.86525391 -0.92015625 2.86525391 -2.671875 2.86328125 C-3.85265625 2.86714844 -5.0334375 2.87101562 -6.25 2.875 C-7.44625 2.87113281 -8.6425 2.86726563 -9.875 2.86328125 C-11.01453125 2.86457031 -12.1540625 2.86585937 -13.328125 2.8671875 C-14.88901855 2.86887939 -14.88901855 2.86887939 -16.48144531 2.87060547 C-18.99624798 2.8311521 -18.99624798 2.8311521 -21 4 C-23.2072923 4.07092842 -25.41667452 4.08415025 -27.625 4.0625 C-28.81351562 4.05347656 -30.00203125 4.04445313 -31.2265625 4.03515625 C-32.14179687 4.02355469 -33.05703125 4.01195312 -34 4 C-24.93001159 -2.04665894 -10.50517949 -0.26451891 0 0 Z " fill="#8B52D9" transform="translate(152,31)"/>
<path d="M0 0 C0.33 0 0.66 0 1 0 C1.10452045 5.77185149 1.08808374 11.3177849 0 17 C-0.33 17.33 -0.66 17.66 -1 18 C-1.09973051 19.78291799 -1.13080625 21.56976477 -1.1328125 23.35546875 C-1.13474609 25.00192383 -1.13474609 25.00192383 -1.13671875 26.68164062 C-1.13285156 27.83857422 -1.12898437 28.99550781 -1.125 30.1875 C-1.12886719 31.32509766 -1.13273438 32.46269531 -1.13671875 33.63476562 C-1.13542969 34.73884766 -1.13414062 35.84292969 -1.1328125 36.98046875 C-1.13168457 37.99004639 -1.13055664 38.99962402 -1.12939453 40.03979492 C-0.99569925 43.09838981 -0.53847359 45.98914299 0 49 C0.0620775 50.62394748 0.08712041 52.25005297 0.0625 53.875 C0.05347656 54.65617187 0.04445312 55.43734375 0.03515625 56.2421875 C0.02355469 56.82226562 0.01195312 57.40234375 0 58 C0.66 58.33 1.32 58.66 2 59 C3.86360591 64.90141871 4.22742222 70.85959995 4 77 C3.67 77 3.34 77 3 77 C-3.90592421 52.7501898 -5.27983508 30.8517672 -1 6 C-0.80277344 4.81664062 -0.60554687 3.63328125 -0.40234375 2.4140625 C-0.26957031 1.61742187 -0.13679687 0.82078125 0 0 Z " fill="#7F5EBB" transform="translate(157,256)"/>
<path d="M0 0 C-0.33 0.99 -0.66 1.98 -1 3 C-2.65 3.33 -4.3 3.66 -6 4 C-6 4.66 -6 5.32 -6 6 C-12.625 9.125 -12.625 9.125 -16 8 C-16 8.66 -16 9.32 -16 10 C-17.95927063 11.7143618 -19.95880212 13.38405168 -22 15 C-22 14.34 -22 13.68 -22 13 C-23.98 13.66 -25.96 14.32 -28 15 C-28 15.66 -28 16.32 -28 17 C-29.32 17 -30.64 17 -32 17 C-32 17.99 -32 18.98 -32 20 C-33.98 20.33 -35.96 20.66 -38 21 C-38 20.34 -38 19.68 -38 19 C-35.3590208 16.84230615 -32.38832943 15.11991409 -29.5 13.3125 C-28.64664062 12.77592773 -27.79328125 12.23935547 -26.9140625 11.68652344 C-7.92258137 0 -7.92258137 0 0 0 Z " fill="#7142B5" transform="translate(372,38)"/>
<path d="M0 0 C2.52588702 2.36292656 3.88820837 3.66462511 5 7 C5.07051114 9.73865287 5.09357765 12.45027588 5.0625 15.1875 C5.05798828 15.93708984 5.05347656 16.68667969 5.04882812 17.45898438 C5.03706354 19.30602383 5.01912865 21.15302213 5 23 C5.66 23.33 6.32 23.66 7 24 C5.4670146 27.0659708 2.68637508 28.4424768 -0.08984375 30.3671875 C-2.14112216 32.12063203 -2.85998109 33.59550597 -4 36 C-6.70605494 37.49545142 -8.2388577 38.12342848 -11.3125 37.625 C-11.869375 37.41875 -12.42625 37.2125 -13 37 C-12.13375 36.649375 -11.2675 36.29875 -10.375 35.9375 C-4.44846653 32.53523079 -0.58916623 27.67529945 1.53515625 21.1640625 C3.08341034 13.95622411 1.89832559 7.01702493 0 0 Z " fill="#7044B2" transform="translate(369,210)"/>
<path d="M0 0 C0.33 1.32 0.66 2.64 1 4 C0.34 4 -0.32 4 -1 4 C-1.31130859 5.06347656 -1.31130859 5.06347656 -1.62890625 6.1484375 C-3.37832327 9.78682618 -5.93919514 12.02955893 -8.9375 14.625 C-10.00952492 15.57505802 -11.08115153 16.52556571 -12.15234375 17.4765625 C-13.09207031 18.30929688 -14.03179687 19.14203125 -15 20 C-15.55816406 20.60585937 -16.11632812 21.21171875 -16.69140625 21.8359375 C-18 23 -18 23 -21 23 C-21.33 23.99 -21.66 24.98 -22 26 C-24.0625 26.6875 -24.0625 26.6875 -26 27 C-20.89551178 20.81865131 -15.31705058 15.20177122 -9.625 9.5625 C-8.69816406 8.64017578 -7.77132812 7.71785156 -6.81640625 6.76757812 C-4.54654154 4.50941375 -2.27436462 2.25363058 0 0 Z " fill="#8A65BD" transform="translate(213,177)"/>
<path d="M0 0 C0 3.54275774 -0.8144815 4.65443136 -2.75 7.5625 C-3.26046875 8.34753906 -3.7709375 9.13257812 -4.296875 9.94140625 C-6.09015087 12.10896676 -7.51184242 12.80336489 -10 14 C-10.81171228 16.55519921 -10.81171228 16.55519921 -11 19 C-12.65 19.33 -14.3 19.66 -16 20 C-16.33 20.99 -16.66 21.98 -17 23 C-18.28965176 24.37562854 -19.62689293 25.70766393 -21 27 C-21.5775 27.5775 -22.155 28.155 -22.75 28.75 C-23.1625 29.1625 -23.575 29.575 -24 30 C-24 25.85692575 -21.79141405 23.78526351 -19.3125 20.6875 C-18.87744141 20.13126953 -18.44238281 19.57503906 -17.99414062 19.00195312 C-16.67556565 17.32394438 -15.34109917 15.66004604 -14 14 C-13.57154785 13.4649585 -13.1430957 12.92991699 -12.70166016 12.37866211 C-10.24725839 9.36240364 -7.71802731 6.6967292 -4.75 4.1875 C-4.06421875 3.60355469 -3.3784375 3.01960938 -2.671875 2.41796875 C-2.12015625 1.95003906 -1.5684375 1.48210938 -1 1 C-0.67 0.67 -0.34 0.34 0 0 Z " fill="#8F5EDE" transform="translate(65,59)"/>
<path d="M0 0 C0.33 0.66 0.66 1.32 1 2 C0.06553465 4.03144641 -0.93224776 6.03533587 -2 8 C-2.66 8 -3.32 8 -4 8 C-4.226875 8.5775 -4.45375 9.155 -4.6875 9.75 C-6.34400513 12.58972308 -8.42567988 13.95224536 -11 16 C-12.01704488 17.21510099 -13.0163251 18.44523015 -14 19.6875 C-16.04682053 22.16913732 -16.72566031 22.9105414 -19.875 23.9375 C-20.57625 23.958125 -21.2775 23.97875 -22 24 C-20.55922954 20.63820226 -18.75249979 18.40843732 -16 16 C-15.34 16 -14.68 16 -14 16 C-13.67 15.01 -13.34 14.02 -13 13 C-11.5625 11.3125 -11.5625 11.3125 -10 10 C-9.34 10 -8.68 10 -8 10 C-7.79375 9.46375 -7.5875 8.9275 -7.375 8.375 C-5.42003056 4.9982346 -2.81776305 2.69525161 0 0 Z " fill="#6B3CB1" transform="translate(304,86)"/>
<path d="M0 0 C0 4.45948798 -1.55585581 7.52576947 -4.6875 10.72265625 C-9.5412234 15 -9.5412234 15 -12 15 C-12.66 16.32 -13.32 17.64 -14 19 C-14.99 19 -15.98 19 -17 19 C-17.33 20.32 -17.66 21.64 -18 23 C-19.65 23.33 -21.3 23.66 -23 24 C-18.32533663 18.37696243 -13.32234333 13.20258446 -8.125 8.0625 C-7.34125 7.28326172 -6.5575 6.50402344 -5.75 5.70117188 C-3.83561419 3.79845915 -1.91891966 1.89813829 0 0 Z " fill="#7146B1" transform="translate(245,145)"/>
<path d="M0 0 C-2.71182212 2.60334924 -3.89133813 2.99456691 -7.75 3.1875 C-8.8225 3.125625 -9.895 3.06375 -11 3 C-11 3.66 -11 4.32 -11 5 C-11.99 5 -12.98 5 -14 5 C-14.33 6.65 -14.66 8.3 -15 10 C-16.8125 10.6875 -16.8125 10.6875 -19 11 C-20.75 9.5625 -20.75 9.5625 -22 8 C-22 8.66 -22 9.32 -22 10 C-24.31 10.33 -26.62 10.66 -29 11 C-25.91982011 4.83964021 -12.38365417 2.1904209 -5.96875 -0.1796875 C-3 -1 -3 -1 0 0 Z " fill="#8C55DF" transform="translate(114,36)"/>
<path d="M0 0 C2.31 0.66 4.62 1.32 7 2 C7 2.66 7 3.32 7 4 C7.99 4 8.98 4 10 4 C10.12375 4.86625 10.12375 4.86625 10.25 5.75 C11.2026631 8.60798931 12.86053074 9.92954588 15 12 C15 12.66 15 13.32 15 14 C16.65 14 18.3 14 20 14 C20.33 14.66 20.66 15.32 21 16 C20.01 16.99 19.02 17.98 18 19 C17.26394531 18.25234375 16.52789062 17.5046875 15.76953125 16.734375 C14.78399056 15.73944821 13.79830579 14.74466412 12.8125 13.75 C12.32974609 13.25886719 11.84699219 12.76773437 11.34960938 12.26171875 C9.04897505 9.94564393 6.77719391 7.82225581 4.21875 5.78125 C1.96533387 3.97216944 1.04459078 2.65895835 0 0 Z " fill="#8D59DE" transform="translate(75,263)"/>
<path d="M0 0 C0.33 0.99 0.66 1.98 1 3 C0.01 4.485 0.01 4.485 -1 6 C-1.99 6 -2.98 6 -4 6 C-4.020625 6.70125 -4.04125 7.4025 -4.0625 8.125 C-5.42320701 12.29783484 -8.33351078 14.67041842 -12 17 C-12.99 17 -13.98 17 -15 17 C-15.66 18.32 -16.32 19.64 -17 21 C-17.66 20.34 -18.32 19.68 -19 19 C-12.73 12.73 -6.46 6.46 0 0 Z " fill="#7B4CB8" transform="translate(265,125)"/>
<path d="M0 0 C0.33 0 0.66 0 1 0 C1.16004686 4.32126525 1.06569728 8.02725754 0 12.21875 C-1.57322252 19.77217241 -1.2124315 27.45082373 -1.125 35.125 C-1.11494704 36.66926501 -1.10582529 38.21353638 -1.09765625 39.7578125 C-1.07583336 43.50534249 -1.04143206 47.25262946 -1 51 C-3 49 -3 49 -3.22705078 45.19287109 C-3.22673346 43.5530258 -3.21539681 41.91315983 -3.1953125 40.2734375 C-3.1924826 39.41062164 -3.18965271 38.54780579 -3.18673706 37.65884399 C-3.17552333 34.8974228 -3.15041684 32.1363235 -3.125 29.375 C-3.11497173 27.50521301 -3.10584562 25.63542095 -3.09765625 23.765625 C-3.07558012 19.17695891 -3.04104234 14.58853407 -3 10 C-2.34 10 -1.68 10 -1 10 C-1.0309375 8.3603125 -1.0309375 8.3603125 -1.0625 6.6875 C-1 3 -1 3 0 0 Z " fill="#8A5AD2" transform="translate(136,257)"/>
<path d="M0 0 C0.66 0 1.32 0 2 0 C3.03590199 5.05002222 3.10251672 9.87416389 3 15 C3.66 15.33 4.32 15.66 5 16 C6.86360591 21.90141871 7.22742222 27.85959995 7 34 C6.67 34 6.34 34 6 34 C2.66947138 22.58280042 0.19616797 11.93057898 0 0 Z " fill="#6F45B0" transform="translate(154,299)"/>
<path d="M0 0 C0 0.66 0 1.32 0 2 C-0.56509277 2.02505615 -1.13018555 2.0501123 -1.71240234 2.07592773 C-4.26683742 2.19179956 -6.8208955 2.31456537 -9.375 2.4375 C-10.26445312 2.47681641 -11.15390625 2.51613281 -12.0703125 2.55664062 C-12.92109375 2.59853516 -13.771875 2.64042969 -14.6484375 2.68359375 C-15.43395996 2.72025146 -16.21948242 2.75690918 -17.02880859 2.79467773 C-19.07523496 2.890891 -19.07523496 2.890891 -21 4 C-23.2072923 4.07092842 -25.41667452 4.08415025 -27.625 4.0625 C-28.81351562 4.05347656 -30.00203125 4.04445313 -31.2265625 4.03515625 C-32.14179687 4.02355469 -33.05703125 4.01195312 -34 4 C-24.8766782 -2.08221453 -10.53349946 -0.15747757 0 0 Z " fill="#8F5DD7" transform="translate(152,31)"/>
<path d="M0 0 C-1.35945995 3.06715595 -2.88007535 5.07741042 -5.3125 7.375 C-8.45926766 10.42301972 -11.2541721 13.58851686 -14 17 C-14.33 15.68 -14.66 14.36 -15 13 C-14.34 12.67 -13.68 12.34 -13 12 C-13.33 11.01 -13.66 10.02 -14 9 C-12.68 8.01 -11.36 7.02 -10 6 C-10 6.66 -10 7.32 -10 8 C-9.34 8 -8.68 8 -8 8 C-8 7.01 -8 6.02 -8 5 C-7.34 5 -6.68 5 -6 5 C-6 4.01 -6 3.02 -6 2 C-2.25 0 -2.25 0 0 0 Z " fill="#7344B8" transform="translate(424,320)"/>
<path d="M0 0 C1.69332721 5.07998163 -0.33680769 10.03735735 -2 15 C-4.125 17.9375 -4.125 17.9375 -6 20 C-6.78946609 22.68507329 -6.78946609 22.68507329 -7 25 C-7.66 25 -8.32 25 -9 25 C-7.55768999 16.02562658 -3.76240733 8.1988288 0 0 Z " fill="#9A6EDC" transform="translate(33,100)"/>
<path d="M0 0 C0.99 0.495 0.99 0.495 2 1 C2.4921875 2.71484375 2.4921875 2.71484375 2.875 4.9375 C3.77888673 9.46416476 5.28931458 13.5006202 7.09765625 17.73828125 C7.94128086 19.85282085 8.68718239 21.74290063 9 24 C8.34 24.66 7.68 25.32 7 26 C0.04255319 8.85106383 0.04255319 8.85106383 0 0 Z " fill="#9867DC" transform="translate(23,181)"/>
<path d="M0 0 C0.33 0 0.66 0 1 0 C1.66 4.95 2.32 9.9 3 15 C-2.14860706 13.71284823 -2.86461447 12.09341999 -6 8 C-4.68 8.33 -3.36 8.66 -2 9 C-2 7.68 -2 6.36 -2 5 C-1.34 5 -0.68 5 0 5 C0 3.35 0 1.7 0 0 Z " fill="#915FDC" transform="translate(135,309)"/>
<path d="M0 0 C2.97 0.495 2.97 0.495 6 1 C6.33 2.65 6.66 4.3 7 6 C8.32 6.33 9.64 6.66 11 7 C11.12375 7.928125 11.12375 7.928125 11.25 8.875 C11.78810733 11.18346804 11.78810733 11.18346804 14 12 C16 13 16 13 16.75 15.125 C16.87375 16.053125 16.87375 16.053125 17 17 C16.34 17 15.68 17 15 17 C13.51953125 15.4609375 13.51953125 15.4609375 11.8125 13.375 C8.91772955 9.94618385 5.9122874 7.08607242 2.3828125 4.32421875 C1 3 1 3 0 0 Z " fill="#9569DD" transform="translate(100,288)"/>
<path d="M0 0 C5 2 5 2 7.265625 3.05859375 C10.50601059 4.17421222 13.14183987 4.23110053 16.5625 4.1875 C17.67753906 4.18105469 18.79257812 4.17460937 19.94140625 4.16796875 C22.47559459 4.02879876 24.58691993 3.73749391 27 3 C27 3.66 27 4.32 27 5 C20.16905673 7.76490561 13.18075456 7.22839544 6 6 C2.56640625 4.44921875 2.56640625 4.44921875 0 3 C0 2.01 0 1.02 0 0 Z " fill="#835CBD" transform="translate(329,245)"/>
<path d="M0 0 C1.32 0.33 2.64 0.66 4 1 C4 1.66 4 2.32 4 3 C4.66 3 5.32 3 6 3 C7.20465156 7.65798604 8.28547412 12.23649415 9 17 C5.21785458 12.7976162 0 5.90556785 0 0 Z " fill="#8D57DD" transform="translate(31,207)"/>
<path d="M0 0 C0.33 1.32 0.66 2.64 1 4 C0.34 4 -0.32 4 -1 4 C-1.165 4.70125 -1.33 5.4025 -1.5 6.125 C-3.68535165 10.31359067 -7.14671162 12.39230949 -11 15 C-9.72163055 10.1534345 -8.00800748 7.55040706 -4.375 4.125 C-3.55773437 3.34382812 -2.74046875 2.56265625 -1.8984375 1.7578125 C-1.27195313 1.17773438 -0.64546875 0.59765625 0 0 Z " fill="#7D51B7" transform="translate(213,177)"/>
<path d="M0 0 C0.33 0 0.66 0 1 0 C1.25 5.625 1.25 5.625 -1 9 C-1.66 9 -2.32 9 -3 9 C-3.226875 9.61875 -3.45375 10.2375 -3.6875 10.875 C-5.42148712 13.68240771 -6.84570354 14.17387474 -10 15 C-12.1640625 14.54296875 -12.1640625 14.54296875 -14 14 C-13.36191406 13.59007812 -12.72382813 13.18015625 -12.06640625 12.7578125 C-11.24011719 12.21898437 -10.41382813 11.68015625 -9.5625 11.125 C-8.73878906 10.59132812 -7.91507812 10.05765625 -7.06640625 9.5078125 C-4.88961129 8.16165694 -4.88961129 8.16165694 -4 6 C-3.34 6 -2.68 6 -2 6 C-1.34 4.02 -0.68 2.04 0 0 Z " fill="#7A52B8" transform="translate(429,174)"/>
<path d="M0 0 C0.33 0.66 0.66 1.32 1 2 C0.01 3.485 0.01 3.485 -1 5 C-1.66 5 -2.32 5 -3 5 C-3.268125 5.928125 -3.53625 6.85625 -3.8125 7.8125 C-5.48078725 12.29053421 -5.48078725 12.29053421 -8 14 C-11.1875 14.6875 -11.1875 14.6875 -14 15 C-12.71937515 13.2925002 -11.38232443 11.62626404 -10 10 C-9.34 10 -8.68 10 -8 10 C-7.731875 9.401875 -7.46375 8.80375 -7.1875 8.1875 C-6.00082594 6.00152146 -4.90400887 4.58667406 -3 3 C-2.34 3 -1.68 3 -1 3 C-0.67 2.01 -0.34 1.02 0 0 Z " fill="#815CB9" transform="translate(280,110)"/>
<path d="M0 0 C0.66 0 1.32 0 2 0 C1.40074509 2.88305128 0.54853768 4.99659057 -1.06640625 7.453125 C-1.46923828 8.071875 -1.87207031 8.690625 -2.28710938 9.328125 C-2.70798828 9.96234375 -3.12886719 10.5965625 -3.5625 11.25 C-3.98724609 11.8996875 -4.41199219 12.549375 -4.84960938 13.21875 C-5.8947306 14.81578918 -6.94669837 16.4083442 -8 18 C-8.33 17.01 -8.66 16.02 -9 15 C-9.66 15 -10.32 15 -11 15 C-11 14.34 -11 13.68 -11 13 C-9.68 13.33 -8.36 13.66 -7 14 C-6.67 12.35 -6.34 10.7 -6 9 C-5.34 9 -4.68 9 -4 9 C-4 7.02 -4 5.04 -4 3 C-3.01 3 -2.02 3 -1 3 C-0.67 2.01 -0.34 1.02 0 0 Z " fill="#9C69E0" transform="translate(159,204)"/>
<path d="M0 0 C0 3 0 3 -1.390625 4.4296875 C-2.00421875 4.90664062 -2.6178125 5.38359375 -3.25 5.875 C-5.61359715 7.78589205 -7.32724263 9.40905329 -9.25 11.8125 C-11 14 -11 14 -14 15 C-14 13.35 -14 11.7 -14 10 C-12.35 10 -10.7 10 -9 10 C-9 8.68 -9 7.36 -9 6 C-8.34 5.34 -7.68 4.68 -7 4 C-6.01 4 -5.02 4 -4 4 C-4.33 3.01 -4.66 2.02 -5 1 C-2 0 -2 0 0 0 Z " fill="#9160DC" transform="translate(249,113)"/>
<path d="M0 0 C0.66 0.99 1.32 1.98 2 3 C0.625 5.5 0.625 5.5 -1 8 C-1.66 8 -2.32 8 -3 8 C-3.28875 8.78375 -3.5775 9.5675 -3.875 10.375 C-5.14042624 13.32766122 -6.74834651 14.74834651 -9 17 C-9 16.01 -9 15.02 -9 14 C-9.66 14 -10.32 14 -11 14 C-11 13.34 -11 12.68 -11 12 C-9.63875 11.1028125 -9.63875 11.1028125 -8.25 10.1875 C-4.09236207 7.38908985 -1.59126352 4.77379056 0 0 Z " fill="#7348B6" transform="translate(310,293)"/>
<path d="M0 0 C7.65606218 -0.19355213 14.66258031 -0.3479743 22 2 C21.67 2.66 21.34 3.32 21 4 C19.39592672 4.02708567 17.7917215 4.04643483 16.1875 4.0625 C14.84751953 4.07990234 14.84751953 4.07990234 13.48046875 4.09765625 C11 4 11 4 8 3 C8 2.34 8 1.68 8 1 C5.36 1 2.72 1 0 1 C0 0.67 0 0.34 0 0 Z " fill="#7046B0" transform="translate(418,32)"/>
<path d="M0 0 C4.91935902 4.11619836 9.52647956 8.40410362 14 13 C13.34 13.66 12.68 14.32 12 15 C10.62437146 13.71034824 9.29233607 12.37310707 8 11 C8 10.34 8 9.68 8 9 C7.236875 8.731875 6.47375 8.46375 5.6875 8.1875 C3.07556798 7.0333905 1.67135778 6.28712117 0 4 C0 2.68 0 1.36 0 0 Z " fill="#9867DA" transform="translate(227,61)"/>
<path d="M0 0 C4.64027248 0.44618005 7.45042326 0.95750565 11 4 C11.99 4.33 12.98 4.66 14 5 C14 5.66 14 6.32 14 7 C14.99 7.33 15.98 7.66 17 8 C15.421875 8.7421875 15.421875 8.7421875 13 9 C10.59407102 7.79703551 8.48119175 6.59121172 6.25 5.125 C5.64800781 4.74730469 5.04601562 4.36960937 4.42578125 3.98046875 C2.92580614 3.0247023 1.4594592 2.01655973 0 1 C0 0.67 0 0.34 0 0 Z " fill="#784AB1" transform="translate(476,315)"/>
<path d="M0 0 C2.97 0.495 2.97 0.495 6 1 C5.67 1.66 5.34 2.32 5 3 C4.1028125 3.1546875 4.1028125 3.1546875 3.1875 3.3125 C0.01790643 4.30865798 -1.06090721 6.37284202 -3 9 C-4.625 10.8125 -4.625 10.8125 -6 12 C-6.66 12 -7.32 12 -8 12 C-8.33 10.68 -8.66 9.36 -9 8 C-7.35 8 -5.7 8 -4 8 C-4 7.01 -4 6.02 -4 5 C-4.66 4.67 -5.32 4.34 -6 4 C-5.01 3.34 -4.02 2.68 -3 2 C-2.01 2.33 -1.02 2.66 0 3 C0 2.01 0 1.02 0 0 Z " fill="#6B3EAF" transform="translate(444,297)"/>
<path d="M0 0 C1 2 1 2 0.3125 4.375 C-1.14446807 7.28893614 -2.4188393 9.00881889 -5 11 C-7.75 11.25 -7.75 11.25 -10 11 C-8.625 9 -8.625 9 -7 7 C-6.34 7 -5.68 7 -5 7 C-4.731875 6.401875 -4.46375 5.80375 -4.1875 5.1875 C-3.01506533 3.02775192 -1.80630718 1.64209744 0 0 Z " fill="#7046B1" transform="translate(323,67)"/>
<path d="M0 0 C1.27875 0.103125 2.5575 0.20625 3.875 0.3125 C4.95394531 0.39951172 4.95394531 0.39951172 6.0546875 0.48828125 C8 1 8 1 10 4 C11.65614657 4.38218767 13.32457024 4.71395102 15 5 C15.99 5.66 16.98 6.32 18 7 C18 7.66 18 8.32 18 9 C18.66 9.33 19.32 9.66 20 10 C16.631043 9.28657381 13.68967767 8.05630184 10.5625 6.625 C9.63566406 6.20476562 8.70882812 5.78453125 7.75390625 5.3515625 C5.06359945 4.03121335 2.51301807 2.63277762 0 1 C0 0.67 0 0.34 0 0 Z " fill="#8964BB" transform="translate(213,396)"/>
<path d="M0 0 C1.32 0.33 2.64 0.66 4 1 C0.97731777 4.25519625 -2.14096436 6.78310719 -6 9 C-6.99 8.67 -7.98 8.34 -9 8 C-8.01 7.34 -7.02 6.68 -6 6 C-5.27617533 3.94074861 -5.27617533 3.94074861 -5 2 C-3.35 2 -1.7 2 0 2 C0 1.34 0 0.68 0 0 Z " fill="#7D55BB" transform="translate(354,386)"/>
<path d="M0 0 C1.32 0.33 2.64 0.66 4 1 C3.47599609 1.92619141 3.47599609 1.92619141 2.94140625 2.87109375 C-0.21631266 8.74820798 -1.67747335 13.3344493 -2 20 C-2.33 20 -2.66 20 -3 20 C-3 15.05 -3 10.1 -3 5 C-1.68 4.34 -0.36 3.68 1 3 C0.67 2.01 0.34 1.02 0 0 Z " fill="#8457BC" transform="translate(380,146)"/>
<path d="M0 0 C-0.33 0.66 -0.66 1.32 -1 2 C-1.99 2 -2.98 2 -4 2 C-4 2.66 -4 3.32 -4 4 C-8.29299643 5.26264601 -10.87831311 4.62950412 -15 3 C-11.36041667 -0.63958333 -4.96749719 -0.15523429 0 0 Z " fill="#511AA6" transform="translate(401,33)"/>
<path d="M0 0 C6.75 5.75 6.75 5.75 9 8 C8.625 10.125 8.625 10.125 8 12 C7.34 12 6.68 12 6 12 C5.67 10.35 5.34 8.7 5 7 C3.02 7.99 3.02 7.99 1 9 C0.67 6.03 0.34 3.06 0 0 Z " fill="#8856D6" transform="translate(255,89)"/>
<path d="M0 0 C-2.59836136 1.36645701 -5.20265556 2.71830669 -7.8125 4.0625 C-8.91948242 4.64741211 -8.91948242 4.64741211 -10.04882812 5.24414062 C-10.76103516 5.60830078 -11.47324219 5.97246094 -12.20703125 6.34765625 C-12.8616333 6.68804932 -13.51623535 7.02844238 -14.19067383 7.37915039 C-16 8 -16 8 -19 7 C-17.54958473 4.09916946 -15.7106171 4.02505692 -12.6875 3 C-8.66031144 1.63390239 -8.66031144 1.63390239 -4.83203125 -0.1875 C-3 -1 -3 -1 0 0 Z " fill="#7F5CBB" transform="translate(341,399)"/>
<path d="M0 0 C0.66 0 1.32 0 2 0 C4.50179085 3.80750639 4.33215697 7.72970107 4.3125 12.125 C4.32861328 12.85332031 4.34472656 13.58164063 4.36132812 14.33203125 C4.36328125 16.4453125 4.36328125 16.4453125 4 20 C3.01 20.66 2.02 21.32 1 22 C1.09539062 21.16597656 1.19078125 20.33195312 1.2890625 19.47265625 C1.98218965 12.43660968 1.95940612 6.80029184 0 0 Z " fill="#9370C8" transform="translate(429,151)"/>
<path d="M0 0 C1.98 0 3.96 0 6 0 C6 0.66 6 1.32 6 2 C7.0828125 2.433125 7.0828125 2.433125 8.1875 2.875 C10.79166667 3.91666667 13.39583333 4.95833333 16 6 C14.375 7.1875 14.375 7.1875 12 8 C8.75 6.625 8.75 6.625 6 5 C6 4.34 6 3.68 6 3 C5.195625 2.87625 4.39125 2.7525 3.5625 2.625 C2.716875 2.41875 1.87125 2.2125 1 2 C0.67 1.34 0.34 0.68 0 0 Z " fill="#7E55B9" transform="translate(462,307)"/>
<path d="M0 0 C2.31 0.33 4.62 0.66 7 1 C7 2.65 7 4.3 7 6 C7.99 6.33 8.98 6.66 10 7 C10.6875 9.0625 10.6875 9.0625 11 11 C7.584241 9.55661511 5.63973737 7.75105832 3.25 4.9375 C2.63640625 4.22464844 2.0228125 3.51179687 1.390625 2.77734375 C0 1 0 1 0 0 Z " fill="#9160DE" transform="translate(62,250)"/>
<path d="M0 0 C1.99954746 -0.04254356 4.00041636 -0.04080783 6 0 C6.33 0.33 6.66 0.66 7 1 C9.28177055 1.49118348 11.57269299 1.89887035 13.87109375 2.3046875 C16 3 16 3 18 6 C11.68878497 4.9007105 5.93661416 3.41862058 0 1 C0 0.67 0 0.34 0 0 Z " fill="#8461C2" transform="translate(233,406)"/>
<path d="M0 0 C0.66 0 1.32 0 2 0 C2.33 0.99 2.66 1.98 3 3 C1.6875 5.1875 1.6875 5.1875 0 7 C-0.66 7 -1.32 7 -2 7 C-2.33 7.99 -2.66 8.98 -3 10 C-5.0625 10.6875 -5.0625 10.6875 -7 11 C-6.67 9.35 -6.34 7.7 -6 6 C-4.68 6 -3.36 6 -2 6 C-1.34 4.02 -0.68 2.04 0 0 Z " fill="#7347B5" transform="translate(391,349)"/>
<path d="M0 0 C2.97 0.495 2.97 0.495 6 1 C6 1.99 6 2.98 6 4 C4.66666667 4.33333333 3.33333333 4.66666667 2 5 C1.34 5.2475 0.68 5.495 0 5.75 C-2 6 -2 6 -4.25 4.5625 C-4.8275 4.046875 -5.405 3.53125 -6 3 C-4.02 2.67 -2.04 2.34 0 2 C0 1.34 0 0.68 0 0 Z " fill="#6D37BB" transform="translate(509,328)"/>
<path d="M0 0 C1.48418893 2.35534331 2.08599522 3.496068 1.609375 6.2890625 C1.32578125 7.05992187 1.0421875 7.83078125 0.75 8.625 C0.47671875 9.40101563 0.2034375 10.17703125 -0.078125 10.9765625 C-1 13 -1 13 -3 15 C-4.28497537 11.14507389 -3.4052209 9.59653164 -2.0625 5.8125 C-1.68222656 4.72582031 -1.30195313 3.63914063 -0.91015625 2.51953125 C-0.60980469 1.68808594 -0.30945313 0.85664063 0 0 Z " fill="#6E42B1" transform="translate(162,242)"/>
<path d="M0 0 C0.66 0.33 1.32 0.66 2 1 C1.01 2.485 1.01 2.485 0 4 C-0.66 4 -1.32 4 -2 4 C-2 4.66 -2 5.32 -2 6 C-3.32 6 -4.64 6 -6 6 C-6 6.99 -6 7.98 -6 9 C-7.98 9.33 -9.96 9.66 -12 10 C-12 9.34 -12 8.68 -12 8 C-10.02559073 6.5368217 -8.06761129 5.19286936 -6 3.875 C-5.42765625 3.50246094 -4.8553125 3.12992188 -4.265625 2.74609375 C-2.84778218 1.82449592 -1.42439275 0.91144179 0 0 Z " fill="#7A54B8" transform="translate(346,49)"/>
<path d="M0 0 C0.91007812 0.00902344 1.82015625 0.01804688 2.7578125 0.02734375 C3.45648438 0.03894531 4.15515625 0.05054688 4.875 0.0625 C5.205 1.0525 5.535 2.0425 5.875 3.0625 C1.585 3.0625 -2.705 3.0625 -7.125 3.0625 C-7.125 2.4025 -7.125 1.7425 -7.125 1.0625 C-4.60024538 -0.19987731 -2.81299534 -0.03606404 0 0 Z " fill="#511B9F" transform="translate(286.125,251.9375)"/>
<path d="M0 0 C0.99 0 1.98 0 3 0 C3 0.99 3 1.98 3 3 C1.37064759 4.37868281 -0.29749607 5.71274093 -2 7 C-2.33 7.66 -2.66 8.32 -3 9 C-3.66 9 -4.32 9 -5 9 C-5.33 9.66 -5.66 10.32 -6 11 C-6.125 8.625 -6.125 8.625 -6 6 C-5.34 5.34 -4.68 4.68 -4 4 C-3.01 4 -2.02 4 -1 4 C-0.67 2.68 -0.34 1.36 0 0 Z " fill="#9465DD" transform="translate(230,129)"/>
<path d="M0 0 C0.99 0 1.98 0 3 0 C1.46990911 3.44270451 -0.4931222 6.18925822 -3 9 C-3.99 9.33 -4.98 9.66 -6 10 C-5.8125 7.1875 -5.8125 7.1875 -5 4 C-2.4375 2.1875 -2.4375 2.1875 0 1 C0 0.67 0 0.34 0 0 Z " fill="#8957DA" transform="translate(182,177)"/>
<path d="M0 0 C6.26418531 1.48362284 10.91513505 5.24162156 16 9 C13 10 13 10 10 9 C10 8.34 10 7.68 10 7 C8.02 6.34 6.04 5.68 4 5 C4 4.34 4 3.68 4 3 C2.68 2.67 1.36 2.34 0 2 C0 1.34 0 0.68 0 0 Z " fill="#9764DD" transform="translate(204,46)"/>
<path d="M0 0 C4.09081162 0.45453462 6.33266483 0.79919779 9 4 C9.66 4.33 10.32 4.66 11 5 C10.67 5.66 10.34 6.32 10 7 C6.38058265 5.49760034 3.2678206 4.17854707 0 2 C0 1.34 0 0.68 0 0 Z " fill="#754DB1" transform="translate(262,300)"/>
<path d="M0 0 C1.28497537 3.85492611 0.4052209 5.40346836 -0.9375 9.1875 C-1.31777344 10.27417969 -1.69804687 11.36085937 -2.08984375 12.48046875 C-2.39019531 13.31191406 -2.69054687 14.14335937 -3 15 C-3.33 15 -3.66 15 -4 15 C-4.17786056 9.84204369 -4.11596899 5.81970715 -2 1 C-1.34 0.67 -0.68 0.34 0 0 Z " fill="#9D72DF" transform="translate(143,236)"/>
<path d="M0 0 C0.7425 0.0825 1.485 0.165 2.25 0.25 C2.25 0.91 2.25 1.57 2.25 2.25 C0.29072937 3.9643618 -1.70880212 5.63405168 -3.75 7.25 C-3.75 6.59 -3.75 5.93 -3.75 5.25 C-4.74 4.92 -5.73 4.59 -6.75 4.25 C-3.42692308 0.31153846 -3.42692308 0.31153846 0 0 Z " fill="#6431AC" transform="translate(353.75,45.75)"/>
<path d="M0 0 C-2.71182212 2.60334924 -3.89133813 2.99456691 -7.75 3.1875 C-8.8225 3.125625 -9.895 3.06375 -11 3 C-11 3.66 -11 4.32 -11 5 C-12.98 5 -14.96 5 -17 5 C-14.02719558 3.47566177 -11.02018843 2.10044072 -7.9375 0.8125 C-7.08027344 0.44769531 -6.22304687 0.08289062 -5.33984375 -0.29296875 C-3 -1 -3 -1 0 0 Z " fill="#AA80E4" transform="translate(114,36)"/>
<path d="M0 0 C1.65 0 3.3 0 5 0 C5.33 0.66 5.66 1.32 6 2 C2.33460332 4.37706418 -0.49056835 4.05094317 -4.75 3.625 C-5.92046875 3.51414062 -7.0909375 3.40328125 -8.296875 3.2890625 C-9.18890625 3.19367188 -10.0809375 3.09828125 -11 3 C-11 2.67 -11 2.34 -11 2 C-7.37 2 -3.74 2 0 2 C0 1.34 0 0.68 0 0 Z " fill="#926BC7" transform="translate(293,307)"/>
<path d="M0 0 C2 0 2 0 3.75 1.625 C5 4 5 4 4.1875 7.25 C3.795625 8.1575 3.40375 9.065 3 10 C1.35 8.35 -0.3 6.7 -2 5 C-1.67 4.360625 -1.34 3.72125 -1 3.0625 C0.07271225 1.23205433 0.07271225 1.23205433 0 0 Z " fill="#6D36BA" transform="translate(305,257)"/>
<path d="M0 0 C-1.5830577 4.2742558 -4.50568404 6.26531794 -8 9 C-8 7.68 -8 6.36 -8 5 C-7.34 5 -6.68 5 -6 5 C-6 4.01 -6 3.02 -6 2 C-2.25 0 -2.25 0 0 0 Z " fill="#6A3EAD" transform="translate(424,320)"/>
<path d="M0 0 C2.21859954 1.93232863 3.77809643 3.40256731 4.8125 6.1875 C5.07951106 10.19266588 4.56143385 14.03541324 4 18 C3.67 18 3.34 18 3 18 C2.86722656 17.03578125 2.73445313 16.0715625 2.59765625 15.078125 C2.33275391 13.18320313 2.33275391 13.18320313 2.0625 11.25 C1.88847656 9.99703125 1.71445312 8.7440625 1.53515625 7.453125 C1.13950662 4.90017407 0.69553578 2.4813709 0 0 Z " fill="#A786D3" transform="translate(369,210)"/>
<path d="M0 0 C2.88437779 1.29299694 4.87219421 2.65941363 7 5 C4.69 5.66 2.38 6.32 0 7 C-0.66 6.34 -1.32 5.68 -2 5 C-1.67 4.360625 -1.34 3.72125 -1 3.0625 C0.07271225 1.23205433 0.07271225 1.23205433 0 0 Z " fill="#945CE5" transform="translate(220,56)"/>
<path d="M0 0 C2.57852594 1.03141038 3.77822593 1.61481345 5.1875 4.0625 C5.455625 4.701875 5.72375 5.34125 6 6 C6.33 6.33 6.66 6.66 7 7 C6.67 7.99 6.34 8.98 6 10 C2.49797737 7.66531825 1.66176363 5.79831687 0 2 C0 1.34 0 0.68 0 0 Z " fill="#7C52BB" transform="translate(168,348)"/>
<path d="M0 0 C0.33 0.66 0.66 1.32 1 2 C0.25 4.0625 0.25 4.0625 -1 6 C-1.99 6.33 -2.98 6.66 -4 7 C-4.33 7.99 -4.66 8.98 -5 10 C-5.99 10 -6.98 10 -8 10 C-6.34908222 5.70761377 -3.26245434 3.1206085 0 0 Z " fill="#8A5FC0" transform="translate(304,86)"/>
<path d="M0 0 C5.28 0.33 10.56 0.66 16 1 C16 1.33 16 1.66 16 2 C8.08 2.495 8.08 2.495 0 3 C0 2.01 0 1.02 0 0 Z " fill="#55239C" transform="translate(275,309)"/>
<path d="M0 0 C0.99 0.33 1.98 0.66 3 1 C0.69 3.64 -1.62 6.28 -4 9 C-4.33 8.01 -4.66 7.02 -5 6 C-4.34 5.67 -3.68 5.34 -3 5 C-3.33 3.68 -3.66 2.36 -4 1 C-2.02 1.495 -2.02 1.495 0 2 C0 1.34 0 0.68 0 0 Z " fill="#9664DF" transform="translate(167,194)"/>
<path d="M0 0 C1 3 1 3 0.0625 5.1875 C-0.4634375 6.0846875 -0.4634375 6.0846875 -1 7 C-1.66 6.67 -2.32 6.34 -3 6 C-3.28875 6.639375 -3.5775 7.27875 -3.875 7.9375 C-5 10 -5 10 -7 11 C-5.5140084 6.40693504 -3.14985318 3.56430755 0 0 Z " fill="#7F41D6" transform="translate(68,57)"/>
<path d="M0 0 C2.31 0 4.62 0 7 0 C7.33 1.98 7.66 3.96 8 6 C5 6 5 6 3.61328125 4.6875 C2.40885417 3.125 1.20442708 1.5625 0 0 Z " fill="#8751D8" transform="translate(122,310)"/>
<path d="M0 0 C0.33 0.99 0.66 1.98 1 3 C1.66 3.33 2.32 3.66 3 4 C1.68 5.65 0.36 7.3 -1 9 C-2.32 8.67 -3.64 8.34 -5 8 C-3.68 7.67 -2.36 7.34 -1 7 C-0.67 4.69 -0.34 2.38 0 0 Z " fill="#7443B5" transform="translate(381,358)"/>
<path d="M0 0 C0.66 0.33 1.32 0.66 2 1 C1.71125 1.680625 1.4225 2.36125 1.125 3.0625 C-0.12597355 6.32893093 -1.07447955 9.62846123 -2 13 C-2.33 13 -2.66 13 -3 13 C-3.27429625 7.60550707 -3.36055646 4.48074195 0 0 Z " fill="#835ABA" transform="translate(262,265)"/>
<path d="M0 0 C5.28 0 10.56 0 16 0 C16 0.33 16 0.66 16 1 C14.77023437 1.09087891 14.77023437 1.09087891 13.515625 1.18359375 C11.89914062 1.30927734 11.89914062 1.30927734 10.25 1.4375 C9.18265625 1.51871094 8.1153125 1.59992188 7.015625 1.68359375 C4.56320038 1.94090773 2.36078709 2.31812218 0 3 C0 2.01 0 1.02 0 0 Z " fill="#A37BD6" transform="translate(274,255)"/>
<path d="M0 0 C0.33 1.32 0.66 2.64 1 4 C0.01 4.66 -0.98 5.32 -2 6 C-2.33 6.680625 -2.66 7.36125 -3 8.0625 C-4 10 -4 10 -7 11 C-5.22054913 6.95579349 -2.60470327 3.53921513 0 0 Z " fill="#8364BC" transform="translate(181,210)"/>
<path d="M0 0 C0.66 0.99 1.32 1.98 2 3 C1.34 3 0.68 3 0 3 C-0.0825 3.763125 -0.165 4.52625 -0.25 5.3125 C-1.14615794 8.52373261 -2.21611025 9.29374499 -5 11 C-3.77472971 6.94718288 -2.30119506 3.55639236 0 0 Z " fill="#916DC2" transform="translate(171,224)"/>
<path d="M0 0 C1.96446905 1.6344795 2.92317791 2.46429394 3.29296875 5.04296875 C3.1953125 7.02864583 3.09765625 9.01432292 3 11 C2.01 10.34 1.02 9.68 0 9 C-0.29296875 6.8359375 -0.29296875 6.8359375 -0.1875 4.375 C-0.16042969 3.55773437 -0.13335937 2.74046875 -0.10546875 1.8984375 C-0.05326172 0.95871094 -0.05326172 0.95871094 0 0 Z " fill="#4E1CA4" transform="translate(315,217)"/>
<path d="M0 0 C0 3.08401374 -0.34209098 4.03663956 -1.8125 6.625 C-2.14894531 7.23601562 -2.48539063 7.84703125 -2.83203125 8.4765625 C-4 10 -4 10 -7 11 C-5.5140084 6.40693504 -3.14985318 3.56430755 0 0 Z " fill="#AD84E4" transform="translate(47,78)"/>
<path d="M0 0 C1.4391134 0.28359887 2.87625518 0.57721399 4.3125 0.875 C5.11300781 1.03742187 5.91351563 1.19984375 6.73828125 1.3671875 C9 2 9 2 12 4 C10.1875 4.625 10.1875 4.625 8 5 C7.01 4.34 6.02 3.68 5 3 C3.0103005 2.60986284 1.00980131 2.26797351 -1 2 C-0.67 1.34 -0.34 0.68 0 0 Z " fill="#8E66C2" transform="translate(443,35)"/>
<path d="M0 0 C0.6875 1.75 0.6875 1.75 1 4 C-0.4375 6.25 -0.4375 6.25 -2 8 C-2.66 7.67 -3.32 7.34 -4 7 C-4 5.68 -4 4.36 -4 3 C-2.68 2.67 -1.36 2.34 0 2 C0 1.34 0 0.68 0 0 Z " fill="#7951B3" transform="translate(534,326)"/>
<path d="M0 0 C0 3.16880694 -0.2058242 4.43689172 -2 7 C-4.625 7.75 -4.625 7.75 -7 8 C-6.02133662 6.85373678 -5.04205413 5.70800212 -4.0625 4.5625 C-3.51722656 3.92441406 -2.97195312 3.28632813 -2.41015625 2.62890625 C-1.63204305 1.73008851 -0.84063472 0.84063472 0 0 Z " fill="#9A77C7" transform="translate(229,161)"/>
<path d="M0 0 C0 3.16880694 -0.2058242 4.43689172 -2 7 C-4.625 7.75 -4.625 7.75 -7 8 C-6.02133662 6.85373678 -5.04205413 5.70800212 -4.0625 4.5625 C-3.51722656 3.92441406 -2.97195312 3.28632813 -2.41015625 2.62890625 C-1.63204305 1.73008851 -0.84063472 0.84063472 0 0 Z " fill="#9074C3" transform="translate(245,145)"/>
<path d="M0 0 C2.31 1.98 4.62 3.96 7 6 C5.02 6.99 5.02 6.99 3 8 C0 2.25 0 2.25 0 0 Z " fill="#935FD9" transform="translate(241,75)"/>
<path d="M0 0 C2.31 1.98 4.62 3.96 7 6 C6.67 6.66 6.34 7.32 6 8 C4.125 7.375 4.125 7.375 2 6 C0.75 2.875 0.75 2.875 0 0 Z " fill="#815ABA" transform="translate(502,70)"/>
<path d="M0 0 C1.32 0.33 2.64 0.66 4 1 C4 1.66 4 2.32 4 3 C4.66 3 5.32 3 6 3 C6.33 4.65 6.66 6.3 7 8 C4.35247996 5.42215154 2.05567935 3.08351902 0 0 Z " fill="#8D63C2" transform="translate(179,366)"/>
<path d="M0 0 C2.97 1.98 2.97 1.98 6 4 C5.67 4.66 5.34 5.32 5 6 C3.68 6 2.36 6 1 6 C0.67 4.02 0.34 2.04 0 0 Z " fill="#794BB3" transform="translate(386,183)"/>
<path d="M0 0 C0.99 0.33 1.98 0.66 3 1 C2.01 1.495 2.01 1.495 1 2 C1 2.66 1 3.32 1 4 C-1 5.625 -1 5.625 -3 7 C-3.1875 4.625 -3.1875 4.625 -3 2 C-2.01 1.34 -1.02 0.68 0 0 Z " fill="#986CDD" transform="translate(200,160)"/>
<path d="M0 0 C0.33 0.99 0.66 1.98 1 3 C-1 6 -1 6 -3.625 6.6875 C-4.800625 6.8421875 -4.800625 6.8421875 -6 7 C-4.02 4.69 -2.04 2.38 0 0 Z " fill="#9266C1" transform="translate(265,125)"/>
<path d="M0 0 C0.66 0 1.32 0 2 0 C2 0.66 2 1.32 2 2 C3.32 2.66 4.64 3.32 6 4 C6 4.99 6 5.98 6 7 C5.67 6.34 5.34 5.68 5 5 C2.47266765 4.34444881 2.47266765 4.34444881 0 4 C0 2.68 0 1.36 0 0 Z " fill="#7A57B5" transform="translate(488,57)"/>
<path d="M0 0 C-4.95 2.475 -4.95 2.475 -10 5 C-9 2 -9 2 -6.125 0.25 C-3 -1 -3 -1 0 0 Z " fill="#926AC7" transform="translate(341,399)"/>
<path d="M0 0 C1.32 0 2.64 0 4 0 C4 0.66 4 1.32 4 2 C2.04072937 3.7143618 0.04119788 5.38405168 -2 7 C-2.33 6.01 -2.66 5.02 -3 4 C-2.01 3.67 -1.02 3.34 0 3 C0 2.01 0 1.02 0 0 Z " fill="#825CBE" transform="translate(402,339)"/>
<path d="M0 0 C1.9451 2.91765 2.45276317 4.62537285 3 8 C2.34 8 1.68 8 1 8 C-2 3.61538462 -2 3.61538462 -2 1 C-1.34 0.67 -0.68 0.34 0 0 Z " fill="#6B3DAC" transform="translate(163,332)"/>
<path d="M0 0 C2.31 0.66 4.62 1.32 7 2 C6.67 3.32 6.34 4.64 6 6 C3.97945196 4.35830472 1.97956942 2.69088222 0 1 C0 0.67 0 0.34 0 0 Z " fill="#8C59DA" transform="translate(94,282)"/>
<path d="M0 0 C0.66 0 1.32 0 2 0 C1.67 0.66 1.34 1.32 1 2 C0.67 1.34 0.34 0.68 0 0 Z M-1 1 C1 3 1 3 1 6 C1.66 6.33 2.32 6.66 3 7 C2.01 7 1.02 7 0 7 C-1.6875 5 -1.6875 5 -3 3 C-2.34 3 -1.68 3 -1 3 C-1 2.34 -1 1.68 -1 1 Z " fill="#8F55E2" transform="translate(60,242)"/>
<path d="M0 0 C0.99 0.33 1.98 0.66 3 1 C1.02 3.31 -0.96 5.62 -3 8 C-3.33 7.34 -3.66 6.68 -4 6 C-1.68421053 1.68421053 -1.68421053 1.68421053 0 0 Z " fill="#7F55B8" transform="translate(325,202)"/>
<path d="M0 0 C0.66 0 1.32 0 2 0 C3.85776765 3.13498292 4.20140476 5.37471432 4 9 C3.34 9 2.68 9 2 9 C1.34 6.03 0.68 3.06 0 0 Z " fill="#7953B7" transform="translate(429,151)"/>
<path d="M0 0 C0 0.66 0 1.32 0 2 C-0.66 2 -1.32 2 -2 2 C-2 2.66 -2 3.32 -2 4 C-4 5.625 -4 5.625 -6 7 C-6.1875 4.625 -6.1875 4.625 -6 2 C-3 0 -3 0 0 0 Z " fill="#9C73DD" transform="translate(219,144)"/>
<path d="M0 0 C1.98 0.66 3.96 1.32 6 2 C6.33 3.65 6.66 5.3 7 7 C5 5.625 5 5.625 3 4 C3 3.34 3 2.68 3 2 C2.01 1.67 1.02 1.34 0 1 C0 0.67 0 0.34 0 0 Z " fill="#7E61C0" transform="translate(420,141)"/>
<path d="M0 0 C0 0.33 0 0.66 0 1 C-1.65 1 -3.3 1 -5 1 C-5 1.66 -5 2.32 -5 3 C-6.98 3.33 -8.96 3.66 -11 4 C-7.65667474 -0.27945633 -5.29105716 -0.4070044 0 0 Z " fill="#7148AE" transform="translate(404,135)"/>
<path d="M0 0 C0.33 0 0.66 0 1 0 C1.08131463 1.43655854 1.13933559 2.8744483 1.1875 4.3125 C1.23970703 5.51326172 1.23970703 5.51326172 1.29296875 6.73828125 C0.93801608 9.47851584 0.10633718 10.29171079 -2 12 C-1.44687265 7.97007218 -0.8441938 3.97977076 0 0 Z " fill="#AB84E5" transform="translate(23,127)"/>
<path d="M0 0 C0.33 0.66 0.66 1.32 1 2 C0.0625 4.625 0.0625 4.625 -1 7 C-2.32 6.34 -3.64 5.68 -5 5 C-3.35 3.35 -1.7 1.7 0 0 Z " fill="#8963C1" transform="translate(323,67)"/>
<path d="M0 0 C-2.76223278 2.76223278 -5.20706617 2.57856291 -9 3 C-9 2.34 -9 1.68 -9 1 C-5.8035914 -0.06546953 -3.34252724 -0.07427838 0 0 Z " fill="#8158BC" transform="translate(321,407)"/>
<path d="M0 0 C0.66 0.33 1.32 0.66 2 1 C2 2.65 2 4.3 2 6 C0.68 5.34 -0.64 4.68 -2 4 C-1.67 3.67 -1.34 3.34 -1 3 C-1.66 2.34 -2.32 1.68 -3 1 C-2.01 0.67 -1.02 0.34 0 0 Z " fill="#4F19A1" transform="translate(196,377)"/>
<path d="M0 0 C2.67927341 4.01891012 2.15601248 6.24161923 2 11 C1.67 11 1.34 11 1 11 C0.63890458 9.35567294 0.28629924 7.7094792 -0.0625 6.0625 C-0.25972656 5.14597656 -0.45695313 4.22945313 -0.66015625 3.28515625 C-0.77230469 2.53105469 -0.88445312 1.77695312 -1 1 C-0.67 0.67 -0.34 0.34 0 0 Z " fill="#7E54BB" transform="translate(159,322)"/>
<path d="M0 0 C1.32 0 2.64 0 4 0 C4 0.66 4 1.32 4 2 C4.99 2.33 5.98 2.66 7 3 C5.1875 3.625 5.1875 3.625 3 4 C2.01 3.34 1.02 2.68 0 2 C0 1.34 0 0.68 0 0 Z " fill="#8460BA" transform="translate(486,320)"/>
<path d="M0 0 C1.32 0.33 2.64 0.66 4 1 C1.03 3.475 1.03 3.475 -2 6 C-2.33 5.01 -2.66 4.02 -3 3 C-2.01 2.67 -1.02 2.34 0 2 C0 1.34 0 0.68 0 0 Z " fill="#835EBE" transform="translate(430,312)"/>
<path d="M0 0 C0.99 0 1.98 0 3 0 C4.42944945 2.35438733 5.08661261 3.48032433 4.625 6.25 C4.41875 6.8275 4.2125 7.405 4 8 C0 2.25 0 2.25 0 0 Z " fill="#9D74DD" transform="translate(35,216)"/>
<path d="M0 0 C2.97 0 5.94 0 9 0 C9 0.33 9 0.66 9 1 C7.906875 1.309375 6.81375 1.61875 5.6875 1.9375 C3.44592006 2.58337897 1.2130649 3.2623117 -1 4 C-0.67 2.68 -0.34 1.36 0 0 Z " fill="#8D6CC0" transform="translate(333,196)"/>
<path d="M0 0 C0.33 0.66 0.66 1.32 1 2 C-0.4375 4.625 -0.4375 4.625 -2 7 C-2.99 6.34 -3.98 5.68 -5 5 C-3.35 3.35 -1.7 1.7 0 0 Z " fill="#936FC2" transform="translate(202,188)"/>
<path d="" fill="#FFFFFF" transform="translate(0,0)"/>
<path d="" fill="#FFFFFF" transform="translate(0,0)"/>
<path d="" fill="#FFFFFF" transform="translate(0,0)"/>
<path d="" fill="#FFFFFF" transform="translate(0,0)"/>
<path d="" fill="#FFFFFF" transform="translate(0,0)"/>
<path d="" fill="#FFFFFF" transform="translate(0,0)"/>
<path d="" fill="#FFFFFF" transform="translate(0,0)"/>
<path d="" fill="#FFFFFF" transform="translate(0,0)"/>
<path d="" fill="#FFFFFF" transform="translate(0,0)"/>
<path d="" fill="#FFFFFF" transform="translate(0,0)"/>
<path d="" fill="#FFFFFF" transform="translate(0,0)"/>
<path d="" fill="#FFFFFF" transform="translate(0,0)"/>
<path d="" fill="#FFFFFF" transform="translate(0,0)"/>
<path d="" fill="#FFFFFF" transform="translate(0,0)"/>
<path d="" fill="#FFFFFF" transform="translate(0,0)"/>
<path d="" fill="#FFFFFF" transform="translate(0,0)"/>
<path d="" fill="#FFFFFF" transform="translate(0,0)"/>
<path d="" fill="#FFFFFF" transform="translate(0,0)"/>
<path d="" fill="#FFFFFF" transform="translate(0,0)"/>
<path d="" fill="#FFFFFF" transform="translate(0,0)"/>
<path d="" fill="#FFFFFF" transform="translate(0,0)"/>
<path d="" fill="#FFFFFF" transform="translate(0,0)"/>
<path d="" fill="#FFFFFF" transform="translate(0,0)"/>
<path d="" fill="#FFFFFF" transform="translate(0,0)"/>
<path d="" fill="#FFFFFF" transform="translate(0,0)"/>
<path d="" fill="#FFFFFF" transform="translate(0,0)"/>
<path d="" fill="#FFFFFF" transform="translate(0,0)"/>
<path d="" fill="#FFFFFF" transform="translate(0,0)"/>
</svg>
